<svg xmlns="http://www.w3.org/2000/svg" width="400" height="400" viewBox="0 0 400 400"><rect width="100%" height="100%" fill="#DDDDDD"/><path fill="#999999" d="M108.97 185.78h4.06v28.92h-4.74v-18.68q0-1.12.12-2.42l-8.74 16.42q-.62 1.18-1.9 1.18h-.76q-1.28 0-1.9-1.18l-8.84-16.48q.06.66.1 1.3t.04 1.18v18.68h-4.74v-28.92h4.06q.36 0 .62.02t.47.1.38.26.33.48l8.66 16.06q.34.64.63 1.32t.57 1.4q.28-.74.58-1.43t.64-1.33l8.54-16.02q.16-.3.34-.48t.39-.26.47-.1.62-.02m15.88 0v12.12h1.26q.76 0 1.26-.21t.86-.67l7.98-10.1q.5-.64 1.05-.89t1.39-.25h4.64l-9.74 12.02q-.86 1.1-1.78 1.56.66.24 1.19.67t1.01 1.13l10.04 13.54h-4.74q-.96 0-1.43-.27t-.79-.79l-8.18-10.68q-.38-.54-.88-.76t-1.44-.22h-1.7v12.72h-5.38v-28.92zm37.14 13.76h3.36q1.52 0 2.65-.38t1.86-1.05 1.09-1.59.36-2.02q0-2.2-1.45-3.38t-4.43-1.18h-3.44zm9.96 4.48 7.24 10.68h-4.86q-1.38 0-2-1.08l-6.08-9.26q-.34-.52-.75-.74t-1.21-.22h-2.3v11.3h-5.38v-28.92h8.82q2.94 0 5.05.61t3.46 1.71 1.99 2.63.64 3.37q0 1.46-.43 2.76t-1.24 2.36-2 1.86-2.71 1.26q.52.3.96.71t.8.97m27.12-15.52-1.34 2.54q-.24.42-.51.61t-.67.19q-.42 0-.91-.31t-1.17-.69-1.59-.69-2.15-.31q-1.12 0-1.96.27t-1.41.75-.85 1.15-.28 1.47q0 1.02.57 1.7t1.51 1.16 2.14.86 2.46.81 2.46 1 2.14 1.44 1.51 2.13.57 3.06q0 1.96-.67 3.67t-1.96 2.98-3.15 2-4.26.73q-1.38 0-2.72-.27t-2.57-.77-2.31-1.2-1.92-1.56l1.58-2.58q.2-.28.52-.47t.68-.19q.5 0 1.08.41t1.38.91 1.87.91 2.57.41q2.3 0 3.56-1.09t1.26-3.13q0-1.14-.57-1.86t-1.51-1.21-2.14-.83-2.44-.74-2.44-.96-2.14-1.46-1.51-2.25-.57-3.33q0-1.58.63-3.08t1.83-2.66 2.96-1.86 4.04-.7q2.56 0 4.72.8t3.68 2.24m21.94 0-1.34 2.54q-.24.42-.51.61t-.67.19q-.42 0-.91-.31t-1.17-.69-1.59-.69-2.15-.31q-1.12 0-1.96.27t-1.41.75-.85 1.15-.28 1.47q0 1.02.57 1.7t1.51 1.16 2.14.86 2.46.81 2.46 1 2.14 1.44 1.51 2.13.57 3.06q0 1.96-.67 3.67t-1.96 2.98-3.15 2-4.26.73q-1.38 0-2.72-.27t-2.57-.77-2.31-1.2-1.92-1.56l1.58-2.58q.2-.28.52-.47t.68-.19q.5 0 1.08.41t1.38.91 1.87.91 2.57.41q2.3 0 3.56-1.09t1.26-3.13q0-1.14-.57-1.86t-1.51-1.21-2.14-.83-2.44-.74-2.44-.96-2.14-1.46-1.51-2.25-.57-3.33q0-1.58.63-3.08t1.83-2.66 2.96-1.86 4.04-.7q2.56 0 4.72.8t3.68 2.24m33.16 1.56h-12.84v8.56h10.84v4.3h-10.84v11.78h-5.4v-28.92h18.24zm7.52 12.02h9.32q0-.96-.27-1.81t-.81-1.49-1.37-1.01-1.93-.37q-2.14 0-3.37 1.22t-1.57 3.46m12.6 2.98h-12.7q.12 1.58.56 2.73t1.16 1.9 1.71 1.12 2.19.37 2.07-.28 1.52-.62 1.14-.62.95-.28q.62 0 .92.46l1.42 1.8q-.82.96-1.84 1.61t-2.13 1.04-2.26.55-2.23.16q-2.14 0-3.98-.71t-3.2-2.1-2.14-3.44-.78-4.75q0-2.1.68-3.95t1.95-3.22 3.1-2.17 4.13-.8q1.94 0 3.58.62t2.82 1.81 1.85 2.92.67 3.95q0 1.12-.24 1.51t-.92.39m8.76-2.98h9.32q0-.96-.27-1.81t-.81-1.49-1.37-1.01-1.93-.37q-2.14 0-3.37 1.22t-1.57 3.46m12.6 2.98h-12.7q.12 1.58.56 2.73t1.16 1.9 1.71 1.12 2.19.37 2.07-.28 1.52-.62 1.14-.62.95-.28q.62 0 .92.46l1.42 1.8q-.82.96-1.84 1.61t-2.13 1.04-2.26.55-2.23.16q-2.14 0-3.98-.71t-3.2-2.1-2.14-3.44-.78-4.75q0-2.1.68-3.95t1.95-3.22 3.1-2.17 4.13-.8q1.94 0 3.58.62t2.82 1.81 1.85 2.92.67 3.95q0 1.12-.24 1.51t-.92.39m17.74 3.56v-9.2q-.84-1.02-1.83-1.44t-2.13-.42q-1.12 0-2.02.42t-1.54 1.27-.98 2.16-.34 3.09q0 1.8.29 3.05t.83 2.04 1.32 1.14 1.74.35q1.54 0 2.62-.64t2.04-1.82m0-23.64h4.94v29.72h-3.02q-.98 0-1.24-.9l-.42-1.98q-1.24 1.42-2.85 2.3t-3.75.88q-1.68 0-3.08-.7t-2.41-2.03-1.56-3.29-.55-4.48q0-2.28.62-4.24t1.78-3.4 2.78-2.25 3.64-.81q1.72 0 2.94.54t2.18 1.46z"/></svg>