<svg xmlns="http://www.w3.org/2000/svg" width="1400" height="800" viewBox="0 0 1400 800"><rect width="100%" height="100%" fill="#DDDDDD"/><path fill="#999999" d="M383.675 350.585h14.1v100.5h-16.47v-64.91q0-3.9.42-8.41l-30.37 57.06q-2.16 4.1-6.6 4.1h-2.65q-4.44 0-6.6-4.1l-30.72-57.27q.21 2.29.35 4.52.14 2.22.14 4.1v64.91h-16.47v-100.5h14.11q1.25 0 2.15.07t1.63.35 1.33.9q.59.63 1.14 1.67l30.1 55.81q1.18 2.22 2.18 4.59 1.01 2.36 1.99 4.86.97-2.57 2.01-4.97t2.22-4.62l29.68-55.67q.56-1.04 1.18-1.67.63-.62 1.36-.9t1.63-.35 2.16-.07m55.18 0v42.12h4.38q2.64 0 4.38-.73 1.73-.73 2.98-2.33l27.73-35.1q1.74-2.22 3.65-3.09t4.83-.87h16.13l-33.85 41.77q-2.99 3.82-6.18 5.42 2.29.84 4.13 2.33 1.84 1.5 3.51 3.93l34.89 47.05h-16.47q-3.34 0-4.97-.94t-2.75-2.74l-28.42-37.12q-1.32-1.87-3.06-2.64-1.74-.76-5-.76h-5.91v44.2h-18.7v-100.5zm129.06 47.82h11.68q5.28 0 9.21-1.32 3.92-1.32 6.46-3.65t3.79-5.53q1.25-3.19 1.25-7.02 0-7.64-5.04-11.74t-15.4-4.1h-11.95zm34.61 15.57 25.16 37.11h-16.89q-4.79 0-6.95-3.75l-21.13-32.18q-1.18-1.81-2.6-2.57-1.43-.77-4.21-.77h-7.99v39.27h-18.7v-100.5h30.65q10.22 0 17.55 2.12 7.34 2.12 12.03 5.94 4.69 3.83 6.91 9.14 2.23 5.32 2.23 11.71 0 5.08-1.5 9.6-1.49 4.51-4.31 8.2-2.81 3.68-6.95 6.46-4.13 2.78-9.41 4.38 1.8 1.04 3.33 2.47 1.53 1.42 2.78 3.37m94.24-53.94-4.65 8.83q-.84 1.46-1.78 2.12-.93.66-2.32.66-1.46 0-3.17-1.08-1.7-1.07-4.06-2.39t-5.53-2.4q-3.16-1.08-7.47-1.08-3.89 0-6.81.94t-4.9 2.61q-1.98 1.66-2.95 3.99-.98 2.33-.98 5.11 0 3.54 1.99 5.91 1.98 2.36 5.24 4.03 3.27 1.67 7.44 2.99t8.55 2.81q4.38 1.5 8.55 3.48t7.43 5q3.27 3.02 5.25 7.4t1.98 10.64q0 6.81-2.33 12.75t-6.81 10.36q-4.48 4.41-10.95 6.95-6.46 2.53-14.8 2.53-4.79 0-9.45-.94-4.66-.93-8.93-2.67-4.28-1.74-8.03-4.17t-6.67-5.42l5.49-8.97q.69-.97 1.81-1.63 1.11-.66 2.36-.66 1.74 0 3.75 1.42 2.02 1.43 4.8 3.16 2.78 1.74 6.5 3.17 3.71 1.42 8.93 1.42 7.99 0 12.37-3.79 4.38-3.78 4.38-10.87 0-3.96-1.98-6.47-1.98-2.5-5.25-4.2t-7.44-2.89q-4.17-1.18-8.48-2.57t-8.48-3.33q-4.17-1.95-7.43-5.08-3.27-3.12-5.25-7.81-1.98-4.7-1.98-11.58 0-5.49 2.19-10.7t6.36-9.24 10.28-6.47q6.12-2.43 14.04-2.43 8.9 0 16.41 2.78 7.5 2.78 12.78 7.78m76.24 0-4.65 8.83q-.84 1.46-1.77 2.12-.94.66-2.33.66-1.46 0-3.16-1.08-1.71-1.07-4.07-2.39t-5.53-2.4q-3.16-1.08-7.47-1.08-3.89 0-6.81.94t-4.9 2.61q-1.98 1.66-2.95 3.99t-.97 5.11q0 3.54 1.98 5.91 1.98 2.36 5.24 4.03 3.27 1.67 7.44 2.99t8.55 2.81q4.38 1.5 8.55 3.48t7.43 5q3.27 3.02 5.25 7.4t1.98 10.64q0 6.81-2.33 12.75-2.32 5.94-6.81 10.36-4.48 4.41-10.94 6.95-6.47 2.53-14.81 2.53-4.79 0-9.45-.94-4.66-.93-8.93-2.67t-8.03-4.17q-3.75-2.43-6.67-5.42l5.49-8.97q.7-.97 1.81-1.63t2.36-.66q1.74 0 3.75 1.42 2.02 1.43 4.8 3.16 2.78 1.74 6.5 3.17 3.72 1.42 8.93 1.42 7.99 0 12.37-3.79 4.38-3.78 4.38-10.87 0-3.96-1.98-6.47-1.98-2.5-5.25-4.2t-7.44-2.89q-4.17-1.18-8.48-2.57-4.3-1.39-8.47-3.33-4.17-1.95-7.44-5.08-3.27-3.12-5.25-7.81-1.98-4.7-1.98-11.58 0-5.49 2.19-10.7t6.36-9.24 10.29-6.47q6.11-2.43 14.03-2.43 8.9 0 16.41 2.78 7.5 2.78 12.78 7.78m115.24 5.43h-44.62v29.74h37.67v14.94h-37.67v40.94h-18.77v-100.5h63.39zm26.13 41.77h32.39q0-3.34-.94-6.29-.94-2.96-2.82-5.18-1.87-2.23-4.76-3.51-2.88-1.29-6.71-1.29-7.43 0-11.71 4.24-4.27 4.24-5.45 12.03m43.78 10.35h-44.13q.42 5.49 1.95 9.49 1.53 3.99 4.03 6.6t5.94 3.89q3.44 1.29 7.61 1.29t7.19-.98q3.03-.97 5.29-2.15 2.25-1.18 3.96-2.15 1.7-.98 3.3-.98 2.15 0 3.2 1.6l4.93 6.26q-2.85 3.33-6.39 5.59-3.55 2.26-7.41 3.62-3.85 1.35-7.85 1.91-4 .55-7.75.55-7.44 0-13.83-2.46-6.39-2.47-11.12-7.3t-7.44-11.96q-2.71-7.12-2.71-16.5 0-7.3 2.37-13.73 2.36-6.43 6.77-11.19 4.42-4.76 10.78-7.54 6.35-2.78 14.35-2.78 6.74 0 12.44 2.16 5.7 2.15 9.8 6.29 4.1 4.13 6.43 10.14 2.32 6.01 2.32 13.73 0 3.89-.83 5.25-.83 1.35-3.2 1.35m30.44-10.35h32.39q0-3.34-.94-6.29-.94-2.96-2.81-5.18-1.88-2.23-4.76-3.51-2.89-1.29-6.71-1.29-7.44 0-11.71 4.24t-5.46 12.03m43.79 10.35h-44.13q.41 5.49 1.94 9.49 1.53 3.99 4.03 6.6 2.51 2.61 5.95 3.89 3.44 1.29 7.61 1.29t7.19-.98q3.02-.97 5.28-2.15t3.96-2.15q1.71-.98 3.3-.98 2.16 0 3.2 1.6l4.94 6.26q-2.85 3.33-6.4 5.59-3.54 2.26-7.4 3.62-3.86 1.35-7.85 1.91-4 .55-7.75.55-7.44 0-13.83-2.46-6.4-2.47-11.12-7.3-4.73-4.83-7.44-11.96-2.71-7.12-2.71-16.5 0-7.3 2.36-13.73 2.37-6.43 6.78-11.19t10.77-7.54 14.35-2.78q6.74 0 12.44 2.16 5.7 2.15 9.8 6.29 4.1 4.13 6.43 10.14t2.33 13.73q0 3.89-.83 5.25-.84 1.35-3.2 1.35m61.65 12.37v-31.97q-2.92-3.54-6.36-5t-7.41-1.46q-3.89 0-7.01 1.46-3.13 1.46-5.36 4.41-2.22 2.95-3.4 7.51-1.18 4.55-1.18 10.73 0 6.26 1 10.6 1.01 4.35 2.89 7.09 1.88 2.75 4.59 3.96 2.71 1.22 6.04 1.22 5.35 0 9.11-2.22 3.75-2.23 7.09-6.33m0-82.15h17.16v103.28h-10.49q-3.41 0-4.31-3.13l-1.46-6.88q-4.31 4.94-9.9 7.99-5.6 3.06-13.04 3.06-5.83 0-10.7-2.43-4.86-2.43-8.37-7.05-3.51-4.63-5.42-11.44-1.92-6.81-1.92-15.57 0-7.92 2.16-14.73 2.15-6.81 6.18-11.81 4.03-5.01 9.66-7.82 5.63-2.82 12.65-2.82 5.98 0 10.22 1.88t7.58 5.07z"/></svg>